<?xml version="1.0" encoding="UTF-8" standalone="no"?>
<!-- Created with Inkscape (http://www.inkscape.org/) -->

<svg
   width="1000"
   height="1000"
   viewBox="0 0 264.58333 264.58334"
   version="1.1"
   id="svg5"
   inkscape:version="1.1 (c68e22c387, 2021-05-23)"
   sodipodi:docname="git_logo.svg"
   xmlns:inkscape="http://www.inkscape.org/namespaces/inkscape"
   xmlns:sodipodi="http://sodipodi.sourceforge.net/DTD/sodipodi-0.dtd"
   xmlns="http://www.w3.org/2000/svg"
   xmlns:svg="http://www.w3.org/2000/svg">
  <sodipodi:namedview
     id="namedview7"
     pagecolor="#505050"
     bordercolor="#ffffff"
     borderopacity="1"
     inkscape:pageshadow="0"
     inkscape:pageopacity="0"
     inkscape:pagecheckerboard="1"
     inkscape:document-units="mm"
     showgrid="false"
     units="px"
     width="1000px"
     inkscape:snap-page="true"
     inkscape:zoom="0.76791526"
     inkscape:cx="457.7328"
     inkscape:cy="611.39558"
     inkscape:window-width="1920"
     inkscape:window-height="1051"
     inkscape:window-x="-9"
     inkscape:window-y="46"
     inkscape:window-maximized="1"
     inkscape:current-layer="layer1" />
  <defs
     id="defs2" />
  <g
     inkscape:label="Layer 1"
     inkscape:groupmode="layer"
     id="layer1">
    <path
       style="fill:#ffffff;fill-opacity:1;fill-rule:evenodd;stroke:none;stroke-width:1.28053;stroke-miterlimit:4;stroke-dasharray:none;stroke-opacity:1"
       d="m 125.99494,263.79009 c -3.3986,-1.02962 -5.16205,-1.91404 -7.79172,-3.90784 C 116.99211,258.96401 90.917318,233.0818 60.259236,202.36623 -0.20703072,141.78658 3.0029223,145.20266 1.0960882,139.40409 0.43508965,137.39403 0.16509375,135.75623 0.05154985,133.0679 c -0.1346636,-3.18833 -0.044639,-4.00542 0.74628429,-6.77683 C 2.7087094,119.59572 0.00922165,122.57609 45.007845,77.480874 67.276957,55.163957 85.632613,36.904652 85.79817,36.904652 c 0.165567,0 6.15228,5.849754 13.303811,12.999456 l 13.002799,12.999455 -1.04215,2.502523 c -5.19874,12.483662 0.2624,25.80834 12.61145,30.77082 l 2.49025,1.0007 0.0862,35.259854 c 0.0821,33.56668 0.0574,35.25985 -0.51461,35.25985 -0.33048,0 -1.96999,0.67472 -3.64336,1.4994 -8.10361,3.9936 -13.02445,11.81237 -13.02445,20.6947 0,10.83393 7.11996,19.98502 17.6784,22.72155 2.60241,0.67449 8.60805,0.67139 11.18521,-0.006 6.62468,-1.74066 12.32137,-6.3465 15.17985,-12.27305 1.72873,-3.58419 2.34517,-6.28549 2.35137,-10.30382 0.0105,-6.55302 -2.03589,-11.47991 -6.76417,-16.28863 -2.43792,-2.47942 -3.38146,-3.17621 -6.07954,-4.48965 -1.75654,-0.85511 -3.47228,-1.55475 -3.81274,-1.55475 -0.59607,0 -0.61581,-1.30565 -0.53273,-35.25293 l 0.0862,-35.252914 2.87381,-1.17659 2.8738,-1.17659 12.79434,12.793664 c 7.03689,7.03653 12.79435,12.90955 12.79435,13.05115 0,0.1416 -0.38632,1.05724 -0.85849,2.03472 -1.42476,2.9496 -1.95806,5.527 -1.98026,9.5706 -0.0227,4.13015 0.41088,6.33473 1.89921,9.65697 3.74987,8.37039 11.88853,13.56304 21.23528,13.54864 4.03592,-0.006 6.78935,-0.63881 10.32625,-2.37243 5.95594,-2.91931 10.51193,-8.56036 12.24594,-15.16242 0.67702,-2.57771 0.68013,-8.58459 0.006,-11.18753 -1.84729,-7.13038 -6.30441,-12.47918 -12.96294,-15.55624 -6.06159,-2.80121 -12.9105,-2.84584 -18.91384,-0.12323 l -2.33242,1.05779 -12.93539,-12.934824 -12.93541,-12.934812 1.01083,-2.239613 c 1.32022,-2.925098 1.95394,-5.98116 1.96122,-9.45781 0.0258,-12.314539 -9.38486,-22.376228 -21.52914,-23.018689 -4.19937,-0.222149 -7.08194,0.249784 -10.6062,1.736437 L 120.647,54.431103 107.48555,41.262974 94.32372,28.095163 104.31556,18.064677 c 5.49554,-5.516772 11.0941,-10.9836913 12.44128,-12.1487313 7.84248,-6.78214194 18.55951,-7.819236 27.5318,-2.664272 1.83831,1.056193 11.42387,10.4737113 58.03604,57.0186943 30.70871,30.664438 56.52688,56.667382 57.37368,57.784322 6.16087,8.12608 6.52852,19.2151 0.90806,27.38757 -1.67873,2.44096 -112.61547,113.4217 -115.0587,115.10435 -4.04096,2.78298 -8.3468,4.06994 -13.50373,4.03607 -2.62531,-0.0172 -4.14762,-0.21674 -6.04897,-0.79275 z m 8.49589,-10.37102 c 0.99712,-0.18915 2.50428,-0.66682 3.34925,-1.06149 2.28936,-1.06935 113.0717,-111.81668 114.31676,-114.28064 1.78187,-3.5263 1.83858,-7.76264 0.15136,-11.30931 -0.59224,-1.24494 -12.98842,-13.84184 -56.49691,-57.411781 -46.65771,-46.723585 -56.07091,-55.997483 -57.78041,-56.925307 -1.95487,-1.060992 -2.20156,-1.108394 -5.76869,-1.108394 -5.26283,0 -5.65053,0.245063 -14.8936,9.414097 l -7.44065,7.381065 6.76311,6.735232 6.76312,6.735232 3.04893,-0.634072 c 6.72569,-1.398715 14.57548,-0.262046 21.17469,3.066113 10.14718,5.117507 16.84339,14.52176 18.68022,26.234738 0.46163,2.943725 0.15767,9.214734 -0.55926,11.538726 l -0.52026,1.686379 7.90885,7.910498 7.90886,7.91048 2.17651,-0.598554 c 1.61535,-0.444236 3.39931,-0.595136 6.91929,-0.585326 4.04233,0.0114 5.24312,0.14695 8.1305,0.918666 10.23838,2.736428 18.08512,9.225018 22.53779,18.636858 2.54476,5.379 3.21277,8.4762 3.18901,14.78556 -0.0172,4.54217 -0.13759,5.68711 -0.89129,8.47103 -2.52438,9.32422 -8.42157,16.86753 -16.80358,21.49412 -2.66164,1.46912 -4.95097,2.36008 -8.87886,3.45549 -1.71013,0.47691 -3.41279,0.61294 -7.62234,0.60895 -5.11001,-0.005 -5.62958,-0.0674 -9.07525,-1.09359 -7.60498,-2.26479 -13.60949,-6.36321 -18.21994,-12.43611 -5.06875,-6.67657 -7.59476,-15.58284 -6.74483,-23.78104 0.18645,-1.79846 0.51668,-3.86308 0.73385,-4.58805 l 0.39484,-1.31812 -3.52576,-3.53852 c -1.93916,-1.9462 -3.64282,-3.53853 -3.78588,-3.53853 -0.14308,0 -0.26014,9.8977 -0.26014,21.9949 v 21.99491 l 2.11732,1.42348 c 8.80994,5.92293 14.5779,16.16802 15.06577,26.75987 0.21177,4.59809 -0.19386,7.58481 -1.64665,12.1243 -3.52461,11.01323 -12.60086,19.64805 -23.83632,22.67703 -3.01418,0.8126 -3.98535,0.91329 -8.80805,0.91329 -4.80591,0 -5.79613,-0.10183 -8.7357,-0.89887 -11.96592,-3.24426 -21.18487,-12.57301 -24.527768,-24.81995 -0.815986,-2.98941 -0.924791,-3.98692 -0.924014,-8.47102 7.86e-4,-4.7482 0.07354,-5.32786 1.105449,-8.80988 1.167463,-3.93952 3.078943,-8.03265 5.063643,-10.84291 2.36354,-3.34669 7.64137,-8.27593 10.0236,-9.36158 l 0.88687,-0.40416 v -28.00963 -28.0096 l -2.33952,-1.59887 c -4.32083,-2.952894 -8.01545,-7.034884 -10.62187,-11.735554 -1.45095,-2.61678 -2.319186,-4.909623 -3.336058,-8.809869 -0.999802,-3.834778 -1.08666,-10.881651 -0.17712,-14.368548 l 0.610302,-2.339697 -6.547058,-6.554887 c -3.600876,-3.605184 -6.684907,-6.554879 -6.853384,-6.554879 -0.168477,0 -16.561638,16.277075 -36.429251,36.17129 -28.285854,28.323724 -36.341654,36.575594 -37.131102,38.034904 -0.944367,1.74567 -1.008178,2.09954 -1.008178,5.59088 0,3.56785 0.04739,3.8146 1.108173,5.76988 0.927632,1.70986 10.199604,11.12501 56.913489,57.7924 58.970747,58.91204 56.881687,56.92913 60.644927,57.56339 2.28824,0.38565 2.49512,0.38589 4.50321,0.005 z"
       id="path2302" />
  </g>
</svg>
